# xmcd CD database file
# Copyright (C) 1993-1998 Ti Kan
# 
# Track frame offsets:
#     150
#     12375
#     24450
#     36750
#     53700
#     64072
#     76372
#     88447
#     101572
#     111075
#     121822
#     134325
#     149937
#     161887
#     177547
#     203737
#     216150
#     241650
# 
# Disc length: 3475 seconds
# 
# Revision: 1
# Processed by: cddbd v1.4b41PL1 Copyright (c) Steve Scherf et al.
# Submitted via: DiscPlay 4.0.4
# 
DISCID=070d9112
DTITLE=Various Artist - Feelin The Blues CD1
DYEAR=1900
DGENRE=
TTITLE0=Crawling King Snake
TTITLE1=Rooster Blues
TTITLE2=Pink Champagne
TTITLE3=Nobody's Business But Mine
TTITLE4=Ain't That Loving You Babe
TTITLE5=Sitting Down Thinking
TTITLE6=Willy And The Hand Jive
TTITLE7=Dust My Broom
TTITLE8=Big Road Blues
TTITLE9=Dig Myself A Hole
TTITLE10=Choo Choo Ch'boogie
TTITLE11=i'm The Midnight Creeper
TTITLE12=Goodnight Irene
TTITLE13=Walter's Blues
TTITLE14=Blues For An Unhappy Girl
TTITLE15=Goin'n Down Slow
TTITLE16=Red Rooster
TTITLE17=You Rascal You
EXTD=
EXTT0=
EXTT1=
EXTT2=
EXTT3=
EXTT4=
EXTT5=
EXTT6=
EXTT7=
EXTT8=
EXTT9=
EXTT10=
EXTT11=
EXTT12=
EXTT13=
EXTT14=
EXTT15=
EXTT16=
EXTT17=
PLAYORDER=
